<svg width="275" height="69" viewBox="0 0 275 69" fill="none" xmlns="http://www.w3.org/2000/svg">
<path d="M70.541 6.7832V16.7441H71.8398C73.0312 16.7441 73.793 16.1647 74.125 15.0059C74.2812 14.472 74.3594 13.3913 74.3594 11.7637C74.3594 10.1361 74.2812 9.05534 74.125 8.52148C73.793 7.36263 73.0312 6.7832 71.8398 6.7832H70.541ZM67.4844 4.5957H72.2402C74.3236 4.5957 75.7396 5.3151 76.4883 6.75391C77.0156 7.77604 77.2793 9.45898 77.2793 11.8027C77.2793 14.14 77.0156 15.8197 76.4883 16.8418C75.7396 18.2806 74.3236 19 72.2402 19H67.4844V4.5957Z" fill="#0A6EB3"/>
<path d="M81.3863 12.7012H83.9059V11.8613C83.9059 10.8587 83.4924 10.3574 82.6656 10.3574C81.8128 10.3574 81.3863 11.0247 81.3863 12.3594V12.7012ZM83.9449 15.2793H86.7477C86.7477 17.9095 85.387 19.2246 82.6656 19.2246C80.9534 19.2246 79.7945 18.7201 79.1891 17.7109C78.7333 16.9492 78.5055 15.6309 78.5055 13.7559C78.5055 12.0827 78.7757 10.862 79.316 10.0938C79.9671 9.17578 81.0836 8.7168 82.6656 8.7168C85.387 8.7168 86.7477 10.0645 86.7477 12.7598V14.2832H81.3863V15.3184C81.3863 16.7572 81.8063 17.4766 82.6461 17.4766C83.512 17.4766 83.9449 16.806 83.9449 15.4648V15.2793Z" fill="#0A6EB3"/>
<path d="M87.8273 19V4.5957H90.6105V19H87.8273Z" fill="#0A6EB3"/>
<path d="M94.8543 19H92.032V4.5957H94.8543V9.99609C95.323 9.14323 96.0717 8.7168 97.1004 8.7168C98.9103 8.7168 99.8152 9.59896 99.8152 11.3633V19H96.993V12.1445C96.993 11.6172 96.9539 11.2428 96.8758 11.0215C96.7456 10.6309 96.4721 10.4355 96.0555 10.4355C95.2547 10.4355 94.8543 10.9108 94.8543 11.8613V19Z" fill="#0A6EB3"/>
<path d="M104.02 8.96094V19H101.198V8.96094H104.02ZM104.02 4.5957V6.97852H101.198V4.5957H104.02Z" fill="#0A6EB3"/>
<path d="M109.627 14.5566H112.693V14.9375C112.693 15.6146 112.794 16.1094 112.996 16.4219C113.25 16.806 113.692 16.998 114.324 16.998C115.326 16.998 115.828 16.4707 115.828 15.416C115.828 14.7324 115.19 13.974 113.914 13.1406C113.868 13.1081 113.806 13.069 113.728 13.0234C113.123 12.6458 112.289 12.0566 111.228 11.2559C110.727 10.7936 110.375 10.3607 110.173 9.95703C109.959 9.51432 109.851 8.96745 109.851 8.31641C109.851 7.04036 110.3 6.04753 111.199 5.33789C112.026 4.68685 113.097 4.36133 114.412 4.36133C117.302 4.36133 118.748 5.67969 118.748 8.31641V8.69727H115.769V8.61914C115.769 7.25846 115.281 6.57812 114.304 6.57812C113.855 6.57812 113.5 6.71484 113.24 6.98828C112.979 7.25521 112.849 7.61328 112.849 8.0625C112.849 8.83073 113.683 9.71289 115.349 10.709C115.649 10.8913 115.981 11.0964 116.345 11.3242C117.185 11.8581 117.787 12.3594 118.152 12.8281C118.627 13.4466 118.865 14.1758 118.865 15.0156C118.865 17.8346 117.24 19.2441 113.992 19.2441C112.514 19.2441 111.42 18.9186 110.711 18.2676C109.975 17.597 109.607 16.5293 109.607 15.0645C109.607 15.0059 109.61 14.9212 109.617 14.8105C109.623 14.6999 109.627 14.6152 109.627 14.5566Z" fill="#0A6EB3"/>
<path d="M120.267 19V4.5957H123.06V13.0625L125.628 8.96094H128.441L125.501 13.3359L128.782 19H125.726L123.06 13.7363V19H120.267Z" fill="#0A6EB3"/>
<path d="M132.011 8.96094V19H129.188V8.96094H132.011ZM132.011 4.5957V6.97852H129.188V4.5957H132.011Z" fill="#0A6EB3"/>
<path d="M133.354 19V4.5957H136.137V19H133.354Z" fill="#0A6EB3"/>
<path d="M137.5 19V4.5957H140.283V19H137.5Z" fill="#0A6EB3"/>
<path d="M146.007 11.5781V11.3828C146.007 9.60547 147.322 8.7168 149.952 8.7168C152.42 8.7168 153.654 9.6901 153.654 11.6367V16.6367C153.654 17.5221 153.719 18.3099 153.849 19H151.349L151.134 17.8574C150.568 18.6712 149.666 19.0781 148.429 19.0781C147.55 19.0781 146.87 18.7689 146.388 18.1504C145.952 17.584 145.734 16.8483 145.734 15.9434C145.734 14.8171 146.085 13.9805 146.788 13.4336C147.602 12.8086 148.735 12.4961 150.187 12.4961H151.075V12.0371C151.075 11.4642 151.023 11.0475 150.919 10.7871C150.75 10.3704 150.428 10.1621 149.952 10.1621C149.06 10.1621 148.614 10.6341 148.614 11.5781H146.007ZM151.075 14.0195C150.196 14.0195 149.575 14.1107 149.21 14.293C148.676 14.5599 148.409 15.0807 148.409 15.8555C148.409 16.8971 148.771 17.418 149.493 17.418C150.548 17.418 151.075 16.5781 151.075 14.8984V14.0195Z" fill="#0A6EB3"/>
<path d="M157.985 19H155.163V10.7578C155.163 9.98307 155.134 9.38411 155.075 8.96094H157.907L157.985 9.99609C158.454 9.14323 159.203 8.7168 160.231 8.7168C162.041 8.7168 162.946 9.59896 162.946 11.3633V19H160.124V12.1445C160.124 11.6172 160.085 11.2428 160.007 11.0215C159.876 10.6309 159.603 10.4355 159.186 10.4355C158.386 10.4355 157.985 10.9108 157.985 11.8613V19Z" fill="#0A6EB3"/>
<path d="M169.299 12.7988C169.299 11.2689 168.905 10.5039 168.118 10.5039C167.532 10.5039 167.164 10.9596 167.014 11.8711C166.968 12.1576 166.946 12.8216 166.946 13.8633V14.0977C166.946 15.3151 166.955 15.9987 166.975 16.1484C167.105 17.0729 167.473 17.5352 168.079 17.5352C168.645 17.5352 169.013 17.2194 169.182 16.5879C169.26 16.2949 169.299 15.7513 169.299 14.957V12.7988ZM169.319 9.78125V4.5957H172.063V16.7637C172.063 17.4473 172.089 18.1862 172.141 18.9805H169.397L169.299 18.0234C168.87 18.8242 168.131 19.2246 167.082 19.2246C166.262 19.2246 165.601 18.9642 165.1 18.4434C164.657 17.9811 164.374 17.2422 164.25 16.2266C164.192 15.7643 164.162 14.957 164.162 13.8047C164.162 12.3138 164.286 11.2103 164.534 10.4941C164.95 9.29622 165.754 8.69727 166.946 8.69727C167.955 8.69727 168.746 9.05859 169.319 9.78125Z" fill="#0A6EB3"/>
<path d="M67.2793 43V28.5957H75.0625V30.8223H70.3164V34.2598H74.6816V36.4766H70.3164V40.6758H75.2383V43H67.2793Z" fill="#0A6EB3"/>
<path d="M79.2281 43H76.4059V34.7578C76.4059 33.9831 76.3766 33.3841 76.318 32.9609H79.15L79.2281 33.9961C79.6969 33.1432 80.4456 32.7168 81.4742 32.7168C83.2841 32.7168 84.1891 33.599 84.1891 35.3633V43H81.3668V36.1445C81.3668 35.6172 81.3277 35.2428 81.2496 35.0215C81.1194 34.6309 80.846 34.4355 80.4293 34.4355C79.6285 34.4355 79.2281 34.9108 79.2281 35.8613V43Z" fill="#0A6EB3"/>
<path d="M90.5031 42.9414C89.6568 43.0456 88.9829 43.0977 88.4816 43.0977C86.7889 43.0977 85.9426 42.2188 85.9426 40.4609V34.6602H84.6242V32.9609H85.9426V31.2617L88.7062 30.041V32.9609H90.5031V34.6602H88.7062V40.0996C88.7062 40.5749 88.7616 40.8874 88.8723 41.0371C89.009 41.2259 89.2987 41.3203 89.7414 41.3203C89.8781 41.3203 90.0865 41.3105 90.3664 41.291C90.4055 41.291 90.451 41.2878 90.5031 41.2812V42.9414Z" fill="#0A6EB3"/>
<path d="M91.1336 43V32.9414H93.5945L93.7801 34.2598C94.1577 33.2311 94.978 32.7168 96.241 32.7168H96.4168V35.1582H96.1629C95.3426 35.1582 94.7631 35.3633 94.4246 35.7734C94.1121 36.151 93.9559 36.7598 93.9559 37.5996V43H91.1336Z" fill="#0A6EB3"/>
<path d="M99.8207 36.7012H102.34V35.8613C102.34 34.8587 101.927 34.3574 101.1 34.3574C100.247 34.3574 99.8207 35.0247 99.8207 36.3594V36.7012ZM102.379 39.2793H105.182C105.182 41.9095 103.821 43.2246 101.1 43.2246C99.3878 43.2246 98.2289 42.7201 97.6234 41.7109C97.1677 40.9492 96.9398 39.6309 96.9398 37.7559C96.9398 36.0827 97.21 34.862 97.7504 34.0938C98.4014 33.1758 99.518 32.7168 101.1 32.7168C103.821 32.7168 105.182 34.0645 105.182 36.7598V38.2832H99.8207V39.3184C99.8207 40.7572 100.241 41.4766 101.08 41.4766C101.946 41.4766 102.379 40.806 102.379 39.4648V39.2793Z" fill="#0A6EB3"/>
<path d="M109.074 36.9648V39.1426C109.074 40.6725 109.468 41.4375 110.256 41.4375C110.842 41.4375 111.206 40.985 111.35 40.0801C111.395 39.8132 111.418 39.1458 111.418 38.0781V37.8438C111.418 36.6393 111.405 35.9557 111.379 35.793C111.249 34.862 110.881 34.3965 110.275 34.3965C109.715 34.3965 109.351 34.709 109.182 35.334C109.11 35.627 109.074 36.1706 109.074 36.9648ZM106.311 46.7988V35.1777C106.311 34.5788 106.281 33.8398 106.223 32.9609H108.977L109.074 33.918C109.497 33.1172 110.236 32.7168 111.291 32.7168C112.111 32.7168 112.772 32.9772 113.273 33.498C113.716 33.9603 113.999 34.6992 114.123 35.7148C114.182 36.1771 114.211 36.9844 114.211 38.1367C114.211 39.6536 114.084 40.7669 113.83 41.4766C113.407 42.6549 112.583 43.2441 111.359 43.2441C110.415 43.2441 109.66 42.8828 109.094 42.1602V46.7988H106.311Z" fill="#0A6EB3"/>
<path d="M115.447 43V32.9414H117.908L118.093 34.2598C118.471 33.2311 119.291 32.7168 120.554 32.7168H120.73V35.1582H120.476C119.656 35.1582 119.076 35.3633 118.738 35.7734C118.425 36.151 118.269 36.7598 118.269 37.5996V43H115.447Z" fill="#0A6EB3"/>
<path d="M124.134 36.7012H126.654V35.8613C126.654 34.8587 126.24 34.3574 125.413 34.3574C124.56 34.3574 124.134 35.0247 124.134 36.3594V36.7012ZM126.693 39.2793H129.495C129.495 41.9095 128.135 43.2246 125.413 43.2246C123.701 43.2246 122.542 42.7201 121.937 41.7109C121.481 40.9492 121.253 39.6309 121.253 37.7559C121.253 36.0827 121.523 34.862 122.064 34.0938C122.715 33.1758 123.831 32.7168 125.413 32.7168C128.135 32.7168 129.495 34.0645 129.495 36.7598V38.2832H124.134V39.3184C124.134 40.7572 124.554 41.4766 125.394 41.4766C126.26 41.4766 126.693 40.806 126.693 39.4648V39.2793Z" fill="#0A6EB3"/>
<path d="M133.446 43H130.624V34.7578C130.624 33.9831 130.595 33.3841 130.536 32.9609H133.368L133.446 33.9961C133.915 33.1432 134.664 32.7168 135.692 32.7168C137.502 32.7168 138.407 33.599 138.407 35.3633V43H135.585V36.1445C135.585 35.6172 135.546 35.2428 135.468 35.0215C135.337 34.6309 135.064 34.4355 134.647 34.4355C133.846 34.4355 133.446 34.9108 133.446 35.8613V43Z" fill="#0A6EB3"/>
<path d="M142.504 36.7012H145.024V35.8613C145.024 34.8587 144.61 34.3574 143.784 34.3574C142.931 34.3574 142.504 35.0247 142.504 36.3594V36.7012ZM145.063 39.2793H147.866C147.866 41.9095 146.505 43.2246 143.784 43.2246C142.071 43.2246 140.912 42.7201 140.307 41.7109C139.851 40.9492 139.623 39.6309 139.623 37.7559C139.623 36.0827 139.894 34.862 140.434 34.0938C141.085 33.1758 142.202 32.7168 143.784 32.7168C146.505 32.7168 147.866 34.0645 147.866 36.7598V38.2832H142.504V39.3184C142.504 40.7572 142.924 41.4766 143.764 41.4766C144.63 41.4766 145.063 40.806 145.063 39.4648V39.2793Z" fill="#0A6EB3"/>
<path d="M153.906 32.9609H156.748V41.6621C156.748 42.2025 156.774 42.6419 156.826 42.9805H154.004L153.906 41.916C153.431 42.7884 152.692 43.2246 151.689 43.2246C149.873 43.2246 148.965 42.3359 148.965 40.5586V32.9609H151.787V39.7969C151.787 40.3307 151.823 40.7018 151.895 40.9102C152.025 41.3008 152.295 41.4961 152.705 41.4961C153.506 41.4961 153.906 41.0241 153.906 40.0801V32.9609Z" fill="#0A6EB3"/>
<path d="M158.248 43V32.9414H160.709L160.894 34.2598C161.272 33.2311 162.092 32.7168 163.355 32.7168H163.531V35.1582H163.277C162.457 35.1582 161.877 35.3633 161.539 35.7734C161.226 36.151 161.07 36.7598 161.07 37.5996V43H158.248Z" fill="#0A6EB3"/>
<path d="M163.917 39.6797H166.652V39.8848C166.652 40.959 166.993 41.4961 167.677 41.4961C168.517 41.4961 168.937 41.151 168.937 40.4609C168.937 39.9206 168.302 39.3216 167.032 38.6641L166.368 38.3223C165.509 37.86 164.946 37.502 164.679 37.248C164.184 36.7858 163.937 36.2031 163.937 35.5C163.937 34.569 164.324 33.8464 165.099 33.332C165.763 32.8958 166.586 32.6777 167.57 32.6777C170.024 32.6777 171.251 33.5859 171.251 35.4023C171.251 35.4414 171.248 35.4967 171.241 35.5684C171.235 35.6335 171.232 35.6855 171.232 35.7246L168.595 35.7148C168.608 35.6367 168.614 35.5326 168.614 35.4023C168.614 34.6016 168.273 34.2012 167.589 34.2012C166.912 34.2012 166.573 34.4941 166.573 35.0801C166.573 35.5098 167.15 36.0306 168.302 36.6426C168.803 36.9095 169.207 37.1341 169.513 37.3164C170.21 37.7331 170.704 38.1107 170.997 38.4492C171.407 38.9245 171.613 39.4941 171.613 40.1582C171.613 42.1439 170.18 43.1367 167.316 43.1367C165.03 43.1367 163.888 42.1178 163.888 40.0801C163.888 39.8913 163.898 39.7578 163.917 39.6797Z" fill="#0A6EB3"/>
<path d="M175.514 43H172.692V28.5957H175.514V33.9961C175.983 33.1432 176.732 32.7168 177.761 32.7168C179.57 32.7168 180.475 33.599 180.475 35.3633V43H177.653V36.1445C177.653 35.6172 177.614 35.2428 177.536 35.0215C177.406 34.6309 177.132 34.4355 176.716 34.4355C175.915 34.4355 175.514 34.9108 175.514 35.8613V43Z" fill="#0A6EB3"/>
<path d="M184.68 32.9609V43H181.858V32.9609H184.68ZM184.68 28.5957V30.9785H181.858V28.5957H184.68Z" fill="#0A6EB3"/>
<path d="M188.836 36.9648V39.1426C188.836 40.6725 189.23 41.4375 190.018 41.4375C190.604 41.4375 190.968 40.985 191.111 40.0801C191.157 39.8132 191.18 39.1458 191.18 38.0781V37.8438C191.18 36.6393 191.167 35.9557 191.141 35.793C191.01 34.862 190.643 34.3965 190.037 34.3965C189.477 34.3965 189.113 34.709 188.943 35.334C188.872 35.627 188.836 36.1706 188.836 36.9648ZM186.072 46.7988V35.1777C186.072 34.5788 186.043 33.8398 185.984 32.9609H188.738L188.836 33.918C189.259 33.1172 189.998 32.7168 191.053 32.7168C191.873 32.7168 192.534 32.9772 193.035 33.498C193.478 33.9603 193.761 34.6992 193.885 35.7148C193.943 36.1771 193.973 36.9844 193.973 38.1367C193.973 39.6536 193.846 40.7669 193.592 41.4766C193.169 42.6549 192.345 43.2441 191.121 43.2441C190.177 43.2441 189.422 42.8828 188.855 42.1602V46.7988H186.072Z" fill="#0A6EB3"/>
<path d="M209.599 28.5957V37.6191C209.599 39.5202 209.264 40.9036 208.593 41.7695C207.831 42.7526 206.532 43.2441 204.696 43.2441C202.984 43.2441 201.728 42.8014 200.927 41.916C200.172 41.0697 199.794 39.7773 199.794 38.0391V28.5957H202.792V37.2578C202.792 38.5469 202.848 39.3802 202.958 39.7578C203.206 40.6237 203.798 41.0566 204.736 41.0566C205.621 41.0566 206.194 40.6074 206.454 39.709C206.571 39.2923 206.63 38.4753 206.63 37.2578V28.5957H209.599Z" fill="#0A6EB3"/>
<path d="M214.126 43H211.304V34.7578C211.304 33.9831 211.274 33.3841 211.216 32.9609H214.048L214.126 33.9961C214.595 33.1432 215.343 32.7168 216.372 32.7168C218.182 32.7168 219.087 33.599 219.087 35.3633V43H216.264V36.1445C216.264 35.6172 216.225 35.2428 216.147 35.0215C216.017 34.6309 215.744 34.4355 215.327 34.4355C214.526 34.4355 214.126 34.9108 214.126 35.8613V43Z" fill="#0A6EB3"/>
<path d="M223.301 32.9609V43H220.479V32.9609H223.301ZM223.301 28.5957V30.9785H220.479V28.5957H223.301Z" fill="#0A6EB3"/>
<path d="M226.51 43L223.951 32.9609H226.832L227.545 37.0039C227.753 38.1693 227.929 39.6341 228.072 41.3984C228.215 40.3047 228.502 38.931 228.932 37.2773L228.99 37.0527L230.064 32.9609H232.789L229.566 43H226.51Z" fill="#0A6EB3"/>
<path d="M235.812 36.7012H238.332V35.8613C238.332 34.8587 237.918 34.3574 237.091 34.3574C236.239 34.3574 235.812 35.0247 235.812 36.3594V36.7012ZM238.371 39.2793H241.173C241.173 41.9095 239.813 43.2246 237.091 43.2246C235.379 43.2246 234.22 42.7201 233.615 41.7109C233.159 40.9492 232.931 39.6309 232.931 37.7559C232.931 36.0827 233.201 34.862 233.742 34.0938C234.393 33.1758 235.509 32.7168 237.091 32.7168C239.813 32.7168 241.173 34.0645 241.173 36.7598V38.2832H235.812V39.3184C235.812 40.7572 236.232 41.4766 237.072 41.4766C237.938 41.4766 238.371 40.806 238.371 39.4648V39.2793Z" fill="#0A6EB3"/>
<path d="M242.312 43V32.9414H244.773L244.958 34.2598C245.336 33.2311 246.156 32.7168 247.419 32.7168H247.595V35.1582H247.341C246.521 35.1582 245.941 35.3633 245.603 35.7734C245.29 36.151 245.134 36.7598 245.134 37.5996V43H242.312Z" fill="#0A6EB3"/>
<path d="M247.981 39.6797H250.716V39.8848C250.716 40.959 251.057 41.4961 251.741 41.4961C252.581 41.4961 253.001 41.151 253.001 40.4609C253.001 39.9206 252.366 39.3216 251.096 38.6641L250.432 38.3223C249.573 37.86 249.01 37.502 248.743 37.248C248.248 36.7858 248.001 36.2031 248.001 35.5C248.001 34.569 248.388 33.8464 249.163 33.332C249.827 32.8958 250.651 32.6777 251.634 32.6777C254.088 32.6777 255.315 33.5859 255.315 35.4023C255.315 35.4414 255.312 35.4967 255.305 35.5684C255.299 35.6335 255.296 35.6855 255.296 35.7246L252.659 35.7148C252.672 35.6367 252.679 35.5326 252.679 35.4023C252.679 34.6016 252.337 34.2012 251.653 34.2012C250.976 34.2012 250.637 34.4941 250.637 35.0801C250.637 35.5098 251.214 36.0306 252.366 36.6426C252.867 36.9095 253.271 37.1341 253.577 37.3164C254.274 37.7331 254.768 38.1107 255.061 38.4492C255.471 38.9245 255.677 39.4941 255.677 40.1582C255.677 42.1439 254.244 43.1367 251.38 43.1367C249.095 43.1367 247.952 42.1178 247.952 40.0801C247.952 39.8913 247.962 39.7578 247.981 39.6797Z" fill="#0A6EB3"/>
<path d="M259.5 32.9609V43H256.678V32.9609H259.5ZM259.5 28.5957V30.9785H256.678V28.5957H259.5Z" fill="#0A6EB3"/>
<path d="M265.746 42.9414C264.9 43.0456 264.226 43.0977 263.725 43.0977C262.032 43.0977 261.186 42.2188 261.186 40.4609V34.6602H259.867V32.9609H261.186V31.2617L263.949 30.041V32.9609H265.746V34.6602H263.949V40.0996C263.949 40.5749 264.005 40.8874 264.115 41.0371C264.252 41.2259 264.542 41.3203 264.984 41.3203C265.121 41.3203 265.329 41.3105 265.609 41.291C265.648 41.291 265.694 41.2878 265.746 41.2812V42.9414Z" fill="#0A6EB3"/>
<path d="M267.343 46.7988L268.437 43.2441L265.517 32.9609H268.339L269.863 40.1582L271.66 32.9609H274.404L270.224 46.7988H267.343Z" fill="#0A6EB3"/>
<path d="M72.0791 60.1411C72.0791 59.5161 71.9229 59.0352 71.6104 58.6982C71.3027 58.3613 70.8633 58.1929 70.292 58.1929C69.5107 58.1929 68.9712 58.4688 68.6733 59.0205C68.3804 59.5723 68.2339 60.7563 68.2339 62.5728C68.2339 64.3257 68.395 65.4976 68.7173 66.0884C69.0396 66.6743 69.6182 66.9673 70.4531 66.9673C70.6729 66.9673 70.9219 66.9526 71.2002 66.9233C71.4834 66.8892 71.8057 66.833 72.167 66.7549V63.5615H70.6655V62.3164H73.5732V67.729C72.9727 67.8706 72.3916 67.9854 71.8301 68.0732C71.332 68.1465 70.8682 68.1831 70.4385 68.1831C69.8086 68.1831 69.269 68.1099 68.8198 67.9634C68.3755 67.812 68.0166 67.5801 67.7432 67.2676C67.3965 66.8916 67.145 66.3423 66.9888 65.6196C66.9155 65.2583 66.8594 64.8115 66.8203 64.2793C66.7812 63.7422 66.7617 63.1172 66.7617 62.4043C66.7617 61.2861 66.8154 60.4292 66.9229 59.8335C67.0352 59.2329 67.2231 58.7275 67.4868 58.3174C67.7505 57.9023 68.124 57.585 68.6074 57.3652C69.0908 57.1455 69.667 57.0356 70.3359 57.0356C71.3564 57.0356 72.145 57.3042 72.7017 57.8413C73.2632 58.3784 73.5439 59.1353 73.5439 60.1118V60.1411H72.0791Z" fill="#FF9300"/>
<path d="M75.3199 64.2207C75.3199 62.8438 75.547 61.8477 76.0011 61.2324C76.4552 60.6123 77.173 60.3022 78.1544 60.3022C79.1456 60.3022 79.8634 60.6123 80.3077 61.2324C80.7521 61.8525 80.9742 62.8535 80.9742 64.2354C80.9742 65.6221 80.7496 66.6279 80.3004 67.2529C79.8561 67.873 79.1407 68.1831 78.1544 68.1831C77.1632 68.1831 76.443 67.8706 75.9938 67.2456C75.5445 66.6206 75.3199 65.6123 75.3199 64.2207ZM78.1544 61.4009C77.6222 61.4009 77.2364 61.6206 76.9972 62.0601C76.7579 62.4995 76.6383 63.2246 76.6383 64.2354C76.6383 65.2607 76.7555 65.9932 76.9898 66.4326C77.2242 66.8672 77.6124 67.0845 78.1544 67.0845C78.6915 67.0845 79.0748 66.8672 79.3043 66.4326C79.5387 65.998 79.6559 65.2705 79.6559 64.25C79.6559 63.2197 79.5387 62.4873 79.3043 62.0527C79.0748 61.6182 78.6915 61.4009 78.1544 61.4009Z" fill="#FF9300"/>
<path d="M84.2736 68L81.9152 60.4707H83.4167L84.6032 64.8066C84.7009 65.1826 84.7888 65.5537 84.8669 65.9199L85.072 67.0845C85.2331 66.3813 85.4113 65.6978 85.6066 65.0337L85.6726 64.814L86.8811 60.4707H88.236L85.8776 68H84.2736Z" fill="#FF9300"/>
<path d="M91.074 58.3394V60.4707H92.5755V61.4009H91.074V65.9126C91.074 66.3179 91.1351 66.5986 91.2571 66.7549C91.3841 66.9062 91.6136 66.9819 91.9456 66.9819L92.5315 66.9526H92.5755L92.5682 67.9268C92.3875 67.9658 92.1995 67.9976 92.0042 68.022L91.5135 68.0586C90.8836 68.0586 90.4368 67.9341 90.1731 67.6851C89.9144 67.436 89.785 66.9966 89.785 66.3667V61.4009H88.6424V60.4707H89.785V58.9546L91.074 58.3394Z" fill="#FF9300"/>
<path d="M94.0438 68V66.3374H95.4721V68H94.0438Z" fill="#FF9300"/>
<path d="M101.119 64.2207C101.119 62.8438 101.346 61.8477 101.8 61.2324C102.254 60.6123 102.972 60.3022 103.953 60.3022C104.944 60.3022 105.662 60.6123 106.107 61.2324C106.551 61.8525 106.773 62.8535 106.773 64.2354C106.773 65.6221 106.548 66.6279 106.099 67.2529C105.655 67.873 104.94 68.1831 103.953 68.1831C102.962 68.1831 102.242 67.8706 101.793 67.2456C101.343 66.6206 101.119 65.6123 101.119 64.2207ZM103.953 61.4009C103.421 61.4009 103.035 61.6206 102.796 62.0601C102.557 62.4995 102.437 63.2246 102.437 64.2354C102.437 65.2607 102.554 65.9932 102.789 66.4326C103.023 66.8672 103.411 67.0845 103.953 67.0845C104.49 67.0845 104.874 66.8672 105.103 66.4326C105.338 65.998 105.455 65.2705 105.455 64.25C105.455 63.2197 105.338 62.4873 105.103 62.0527C104.874 61.6182 104.49 61.4009 103.953 61.4009Z" fill="#FF9300"/>
<path d="M108.696 58.6982C108.696 58.3467 108.735 58.0806 108.813 57.8999C108.891 57.7192 109.025 57.563 109.216 57.4312C109.411 57.2944 109.662 57.1943 109.97 57.1309C110.278 57.0674 110.636 57.0356 111.047 57.0356H111.376V58.0537C111.088 58.0537 110.854 58.0757 110.673 58.1196C110.497 58.1636 110.356 58.2295 110.248 58.3174C110.063 58.4785 109.97 58.896 109.97 59.5698V60.4707H111.376V61.4009H109.97V68H108.696V61.4009H107.641V60.4707H108.696V58.6982Z" fill="#FF9300"/>
<path d="M122.326 66.7549L122.282 65.7441L122.267 64.7773V57.1968H123.585V68H121.652L117.499 58.1782L117.587 59.3721L117.616 60.2144V68H116.327V57.1968H118.356L122.326 66.7549Z" fill="#FF9300"/>
<path d="M131.975 64.6675V64.9092C131.975 65.9297 131.704 66.728 131.162 67.3042C130.62 67.8804 129.866 68.1685 128.899 68.1685C128.45 68.1685 128.022 68.1025 127.617 67.9707C127.217 67.8389 126.895 67.6582 126.65 67.4287C126.245 67.0625 125.955 66.5205 125.779 65.8027C125.701 65.4561 125.64 64.9922 125.596 64.4111C125.552 63.8252 125.53 63.1416 125.53 62.3604C125.53 61.2568 125.581 60.4048 125.684 59.8042C125.786 59.2036 125.962 58.7056 126.211 58.3101C126.46 57.9146 126.816 57.6094 127.28 57.3945C127.744 57.1748 128.279 57.0649 128.884 57.0649C129.871 57.0649 130.62 57.3408 131.133 57.8926C131.646 58.4395 131.902 59.2378 131.902 60.2876H130.386V60.1265C130.386 59.4819 130.259 59.001 130.005 58.6836C129.751 58.3662 129.363 58.2075 128.84 58.2075C128.513 58.2075 128.225 58.271 127.976 58.3979C127.732 58.5249 127.537 58.708 127.39 58.9473C127.244 59.1865 127.136 59.5674 127.068 60.0898C127 60.6074 126.965 61.54 126.965 62.8877C126.965 64.5283 127.102 65.627 127.375 66.1836C127.654 66.7354 128.142 67.0112 128.84 67.0112C129.402 67.0112 129.814 66.8281 130.078 66.4619C130.342 66.0957 130.474 65.5391 130.474 64.792V64.6675H131.975Z" fill="#FF9300"/>
<path d="M135.758 68V58.3101H133.107V57.1968H139.764V58.3101H137.186V68H135.758Z" fill="#FF9300"/>
<path d="M144.488 64.2207C144.488 62.8438 144.715 61.8477 145.169 61.2324C145.623 60.6123 146.341 60.3022 147.323 60.3022C148.314 60.3022 149.032 60.6123 149.476 61.2324C149.92 61.8525 150.142 62.8535 150.142 64.2354C150.142 65.6221 149.918 66.6279 149.469 67.2529C149.024 67.873 148.309 68.1831 147.323 68.1831C146.331 68.1831 145.611 67.8706 145.162 67.2456C144.713 66.6206 144.488 65.6123 144.488 64.2207ZM147.323 61.4009C146.79 61.4009 146.405 61.6206 146.165 62.0601C145.926 62.4995 145.806 63.2246 145.806 64.2354C145.806 65.2607 145.924 65.9932 146.158 66.4326C146.392 66.8672 146.781 67.0845 147.323 67.0845C147.86 67.0845 148.243 66.8672 148.472 66.4326C148.707 65.998 148.824 65.2705 148.824 64.25C148.824 63.2197 148.707 62.4873 148.472 62.0527C148.243 61.6182 147.86 61.4009 147.323 61.4009Z" fill="#FF9300"/>
<path d="M152.065 58.6982C152.065 58.3467 152.104 58.0806 152.182 57.8999C152.26 57.7192 152.394 57.563 152.585 57.4312C152.78 57.2944 153.032 57.1943 153.339 57.1309C153.647 57.0674 154.006 57.0356 154.416 57.0356H154.745V58.0537C154.457 58.0537 154.223 58.0757 154.042 58.1196C153.867 58.1636 153.725 58.2295 153.618 58.3174C153.432 58.4785 153.339 58.896 153.339 59.5698V60.4707H154.745V61.4009H153.339V68H152.065V61.4009H151.01V60.4707H152.065V58.6982Z" fill="#FF9300"/>
<path d="M159.696 68V57.1968H162.289C163.261 57.1968 163.949 57.2529 164.355 57.3652C164.765 57.4775 165.116 57.6729 165.409 57.9512C165.775 58.2881 166.032 58.7568 166.178 59.3574C166.252 59.6553 166.308 60.085 166.347 60.6465C166.386 61.2031 166.405 61.894 166.405 62.7192C166.405 63.9155 166.354 64.8018 166.252 65.3779C166.154 65.9541 165.99 66.4131 165.761 66.7549C165.453 67.209 165.07 67.5312 164.611 67.7217C164.152 67.9072 163.378 68 162.289 68H159.696ZM161.139 66.7695H162.655C163.173 66.7695 163.581 66.7109 163.879 66.5938C164.181 66.4766 164.413 66.2861 164.574 66.0225C164.721 65.7588 164.828 65.3584 164.897 64.8213C164.97 64.2793 165.006 63.5127 165.006 62.5215C165.006 62.2236 164.999 61.9258 164.984 61.6279C164.97 61.3301 164.955 60.9907 164.941 60.6099C164.941 60.3462 164.926 60.1338 164.897 59.9727C164.872 59.8115 164.838 59.6772 164.794 59.5698C164.638 59.1353 164.399 58.8276 164.076 58.647C163.759 58.4614 163.285 58.3687 162.655 58.3687H161.139V66.7695Z" fill="#FF9300"/>
<path d="M169.324 63.5615H172.232V62.917C172.232 62.3604 172.114 61.9331 171.88 61.6353C171.646 61.3374 171.301 61.1885 170.847 61.1885C170.349 61.1885 169.971 61.3789 169.712 61.7598C169.585 61.9551 169.488 62.2041 169.419 62.5068C169.356 62.8047 169.324 63.1562 169.324 63.5615ZM173.506 65.6416C173.506 66.0273 173.44 66.3765 173.308 66.689C173.176 66.9966 172.984 67.27 172.73 67.5093C172.256 67.9585 171.614 68.1831 170.803 68.1831C169.807 68.1831 169.087 67.8755 168.643 67.2603C168.203 66.6401 167.984 65.6123 167.984 64.1768C167.984 62.8242 168.208 61.8403 168.657 61.2251C169.107 60.6099 169.822 60.3022 170.803 60.3022C171.736 60.3022 172.42 60.5488 172.854 61.042C173.289 61.5303 173.506 62.3042 173.506 63.3638V64.5356H169.317V64.9678C169.317 65.7002 169.434 66.2373 169.668 66.5791C169.903 66.916 170.281 67.0845 170.803 67.0845C171.194 67.0845 171.511 66.96 171.756 66.7109C172 66.4619 172.154 66.1055 172.217 65.6416H173.506Z" fill="#FF9300"/>
<path d="M176.344 68H175.055V57.1968H176.344V68Z" fill="#FF9300"/>
<path d="M182.17 68V63.188C182.17 62.4604 182.075 61.96 181.885 61.6865C181.699 61.4131 181.379 61.2764 180.925 61.2764C180.412 61.2764 180.039 61.4668 179.805 61.8477C179.57 62.2236 179.453 62.8242 179.453 63.6494V68H178.164V57.1968H179.453V61.3423C179.726 60.981 180.024 60.7148 180.347 60.5439C180.669 60.373 181.04 60.2876 181.46 60.2876C182.075 60.2876 182.563 60.4707 182.925 60.8369C183.291 61.1982 183.474 61.6914 183.474 62.3164V68H182.17Z" fill="#FF9300"/>
<path d="M185.36 58.5811V57.1968H186.605V58.5811H185.36ZM185.36 68V60.4707H186.605V68H185.36Z" fill="#FF9300"/>
<path fill-rule="evenodd" clip-rule="evenodd" d="M24.2625 20.8711C25.2146 20.8711 26.1277 21.2556 26.801 21.9401C27.4742 22.6246 27.8524 23.5529 27.8524 24.5209C27.8524 25.2428 27.6419 25.9485 27.2474 26.5487C26.853 27.1489 26.2923 27.6167 25.6363 27.893C24.9803 28.1692 24.2585 28.2415 23.5621 28.1007C22.8658 27.9598 22.2261 27.6122 21.724 27.1018C21.222 26.5913 20.8801 25.941 20.7416 25.233C20.603 24.525 20.6741 23.7911 20.9458 23.1242C21.2176 22.4573 21.6777 21.8873 22.268 21.4862C22.8584 21.0852 23.5525 20.8711 24.2625 20.8711Z" fill="#0471B5"/>
<path fill-rule="evenodd" clip-rule="evenodd" d="M7.31947 24.7921C11.0099 23.0853 13.099 28.9721 9.53843 30.3398C7.83559 30.9943 6.11505 30.2114 5.50862 28.7023C4.58976 26.4154 6.01014 25.3976 7.31947 24.7921ZM9.91849 13.104C12.9553 11.242 14.7807 16.3229 12.2305 17.4806C9.28057 18.8191 6.6554 15.1051 9.91849 13.104ZM24.7726 49.1451C36.5381 49.188 44.6673 41.5416 47.7401 33.3951C49.0802 29.842 46.7644 27.2293 44.0578 29.0591C43.1193 29.6933 42.9025 30.979 42.3868 32.2711C38.1475 42.8916 24.7595 47.6962 14.0048 41.0243C12.5833 40.1429 8.97658 37.6873 11.6894 35.4023C12.9599 34.3324 14.1996 34.773 15.2461 35.5655C23.0279 41.4573 33.0294 39.4374 37.3098 31.1161C42.5555 20.9183 33.8806 18.7333 33.5443 24.4373C32.9199 35.0336 21.7512 35.8338 17.3948 29.8619C13.7792 24.9059 16.3176 19.0521 20.367 16.8038C27.7709 12.6928 31.9042 21.6437 34.2649 16.6739C35.472 14.1333 31.6717 12.3203 30.0783 11.68C26.1596 10.1043 22.1355 10.1464 18.2218 12.082C13.7662 14.2862 12.9545 10.2265 14.1632 8.67836C14.6931 7.99973 16.2203 7.35594 17.0404 7.01296C26.0389 3.24991 30.556 7.14018 32.8273 6.83785C35.5527 6.47458 36.2775 2.86094 33.0909 1.53584C24.4652 -2.05097 13.6585 0.983263 7.40595 7.12984C-7.84979 22.1258 1.69632 49.0612 24.7726 49.1451Z" fill="#0571B9"/>
<path fill-rule="evenodd" clip-rule="evenodd" d="M44.7404 11.2654C45.3591 11.2654 45.9718 11.3869 46.5434 11.623C47.1151 11.8591 47.6345 12.2051 48.072 12.6414C48.5095 13.0777 48.8566 13.5956 49.0933 14.1656C49.3301 14.7356 49.452 15.3465 49.452 15.9634C49.452 16.8926 49.1757 17.801 48.658 18.5736C48.1402 19.3461 47.4044 19.9483 46.5435 20.3039C45.6826 20.6595 44.7352 20.7525 43.8213 20.5713C42.9073 20.39 42.0678 19.9425 41.4089 19.2855C40.75 18.6285 40.3012 17.7914 40.1194 16.88C39.9376 15.9687 40.0309 15.0241 40.3875 14.1656C40.7441 13.3071 41.348 12.5734 42.1228 12.0572C42.8976 11.5409 43.8085 11.2654 44.7404 11.2654Z" fill="#F4981D"/>
<path fill-rule="evenodd" clip-rule="evenodd" d="M20.7896 39.1159C21.3515 39.1159 21.8905 39.3316 22.2879 39.7157C22.6852 40.0997 22.9085 40.6205 22.9085 41.1636C22.9085 41.5686 22.7842 41.9645 22.5514 42.3012C22.3186 42.6379 21.9876 42.9004 21.6005 43.0554C21.2133 43.2104 20.7872 43.2509 20.3762 43.1719C19.9652 43.0929 19.5876 42.8979 19.2913 42.6115C18.995 42.3251 18.7931 41.9603 18.7114 41.5631C18.6296 41.1658 18.6716 40.7541 18.832 40.38C18.9923 40.0058 19.2639 39.686 19.6124 39.461C19.9608 39.236 20.3705 39.1159 20.7896 39.1159Z" fill="#0A6EB3"/>
<path d="M2.888 68C2.394 68 2.014 67.867 1.748 67.601C1.482 67.335 1.349 66.955 1.349 66.461V56.144C1.349 55.65 1.482 55.27 1.748 55.004C2.014 54.738 2.394 54.605 2.888 54.605H6.593C8.88567 54.605 10.6527 55.1877 11.894 56.353C13.148 57.5057 13.775 59.1523 13.775 61.293C13.775 62.3697 13.6103 63.326 13.281 64.162C12.9643 64.9853 12.502 65.682 11.894 66.252C11.286 66.822 10.5387 67.259 9.652 67.563C8.76533 67.8543 7.74567 68 6.593 68H2.888ZM4.294 65.587H6.422C7.144 65.587 7.771 65.4983 8.303 65.321C8.835 65.1437 9.27833 64.8777 9.633 64.523C9.98767 64.1683 10.2537 63.725 10.431 63.193C10.6083 62.6483 10.697 62.015 10.697 61.293C10.697 59.849 10.336 58.7787 9.614 58.082C8.90467 57.3727 7.84067 57.018 6.422 57.018H4.294V65.587Z" fill="#F4981D"/>
<path d="M19.9009 68.209C19.3689 68.209 18.8242 68.1647 18.2669 68.076C17.7222 68 17.1965 67.886 16.6899 67.734C16.1959 67.582 15.7525 67.392 15.3599 67.164C15.0812 67.012 14.8849 66.8157 14.7709 66.575C14.6569 66.3217 14.6125 66.0683 14.6379 65.815C14.6759 65.5617 14.7709 65.34 14.9229 65.15C15.0875 64.9473 15.2902 64.8207 15.5309 64.77C15.7842 64.7067 16.0629 64.751 16.3669 64.903C16.8862 65.1943 17.4499 65.4097 18.0579 65.549C18.6785 65.6883 19.2929 65.758 19.9009 65.758C20.8255 65.758 21.4842 65.6187 21.8769 65.34C22.2695 65.0487 22.4659 64.6877 22.4659 64.257C22.4659 63.8897 22.3265 63.5983 22.0479 63.383C21.7692 63.1677 21.2815 62.984 20.5849 62.832L18.4379 62.376C17.2219 62.1227 16.3162 61.692 15.7209 61.084C15.1382 60.4633 14.8469 59.6527 14.8469 58.652C14.8469 58.0187 14.9799 57.4423 15.2459 56.923C15.5119 56.4037 15.8855 55.954 16.3669 55.574C16.8482 55.194 17.4182 54.9027 18.0769 54.7C18.7482 54.4973 19.4829 54.396 20.2809 54.396C20.9902 54.396 21.6869 54.4847 22.3709 54.662C23.0549 54.8267 23.6565 55.0737 24.1759 55.403C24.4292 55.555 24.6002 55.7513 24.6889 55.992C24.7902 56.22 24.8219 56.4543 24.7839 56.695C24.7585 56.923 24.6635 57.1257 24.4989 57.303C24.3469 57.4803 24.1505 57.5943 23.9099 57.645C23.6692 57.6957 23.3779 57.6387 23.0359 57.474C22.6179 57.2587 22.1745 57.1003 21.7059 56.999C21.2372 56.8977 20.7559 56.847 20.2619 56.847C19.7299 56.847 19.2739 56.9167 18.8939 57.056C18.5265 57.1953 18.2415 57.3917 18.0389 57.645C17.8489 57.8983 17.7539 58.1897 17.7539 58.519C17.7539 58.8863 17.8869 59.184 18.1529 59.412C18.4189 59.64 18.8812 59.8237 19.5399 59.963L21.6869 60.419C22.9282 60.685 23.8529 61.1157 24.4609 61.711C25.0689 62.2937 25.3729 63.0663 25.3729 64.029C25.3729 64.6623 25.2462 65.2387 24.9929 65.758C24.7395 66.2647 24.3722 66.7017 23.8909 67.069C23.4095 67.4363 22.8332 67.7213 22.1619 67.924C21.4905 68.114 20.7369 68.209 19.9009 68.209Z" fill="#F4981D"/>
<path d="M27.8737 68C27.3797 68 26.9997 67.867 26.7337 67.601C26.4677 67.335 26.3347 66.955 26.3347 66.461V56.144C26.3347 55.65 26.4677 55.27 26.7337 55.004C26.9997 54.738 27.3797 54.605 27.8737 54.605H34.5047C34.8847 54.605 35.1697 54.7063 35.3597 54.909C35.5624 55.099 35.6637 55.3777 35.6637 55.745C35.6637 56.125 35.5624 56.4163 35.3597 56.619C35.1697 56.809 34.8847 56.904 34.5047 56.904H29.1467V60.039H34.0677C34.4604 60.039 34.7517 60.1403 34.9417 60.343C35.1444 60.533 35.2457 60.818 35.2457 61.198C35.2457 61.578 35.1444 61.8693 34.9417 62.072C34.7517 62.262 34.4604 62.357 34.0677 62.357H29.1467V65.701H34.5047C34.8847 65.701 35.1697 65.8023 35.3597 66.005C35.5624 66.195 35.6637 66.4737 35.6637 66.841C35.6637 67.221 35.5624 67.5123 35.3597 67.715C35.1697 67.905 34.8847 68 34.5047 68H27.8737Z" fill="#F4981D"/>
<path d="M42.6267 68.209C41.6767 68.209 40.8343 68.0887 40.0997 67.848C39.3777 67.5947 38.7697 67.2273 38.2757 66.746C37.7816 66.2647 37.408 65.663 37.1547 64.941C36.914 64.2063 36.7937 63.3577 36.7937 62.395V55.935C36.7937 55.441 36.9203 55.0673 37.1736 54.814C37.427 54.5607 37.7943 54.434 38.2757 54.434C38.7443 54.434 39.1053 54.5607 39.3587 54.814C39.612 55.0673 39.7387 55.441 39.7387 55.935V62.414C39.7387 63.5033 39.9856 64.3267 40.4796 64.884C40.9736 65.4287 41.6893 65.701 42.6267 65.701C43.564 65.701 44.2733 65.4287 44.7547 64.884C45.2487 64.3267 45.4957 63.5033 45.4957 62.414V55.935C45.4957 55.441 45.6223 55.0673 45.8757 54.814C46.129 54.5607 46.49 54.434 46.9586 54.434C47.4273 54.434 47.782 54.5607 48.0227 54.814C48.276 55.0673 48.4026 55.441 48.4026 55.935V62.395C48.4026 63.6743 48.181 64.751 47.7377 65.625C47.307 66.4863 46.661 67.1323 45.7997 67.563C44.951 67.9937 43.8933 68.209 42.6267 68.209Z" fill="#F4981D"/>
</svg>
